<svg xmlns="http://www.w3.org/2000/svg" viewBox="0 0 477.09 251.82"><defs><style>.cls-1{font-size:196px;stroke:#000;stroke-miterlimit:10;stroke-width:3px;font-family:Itim-Regular, Itim;letter-spacing:0.02em;}.cls-2{letter-spacing:0.01em;}.cls-3{letter-spacing:0.12em;}.cls-4{font-size:50px;letter-spacing:0.01em;}</style></defs><title>black-logo-stroll-text</title><g id="Layer_2" data-name="Layer 2"><g id="Layer_1-2" data-name="Layer 1"><text class="cls-1" transform="translate(126.44 161.73)">t<tspan class="cls-2" x="78.4" y="0">r</tspan><tspan class="cls-3" x="154.64" y="0"> </tspan><tspan class="cls-4" x="221.67" y="0"> </tspan><tspan class="cls-2" x="233.52" y="0">ll</tspan></text><path d="M338.21,155a1,1,0,0,0-1.69,0c-3.72,6.19-6.47,10.45-6.84,11a2.5,2.5,0,0,1-4.2,0c-.29-.46-2.16-3.35-4.85-7.75a1,1,0,0,0-1.79.17c-10.21,26.39-34.26,47.45-66.26,57.91-40,13.08-85,6.75-120.41-16.94a114.25,114.25,0,0,1-23.68-20.88,1,1,0,0,1,0-1.31A45.45,45.45,0,0,0,117,163c9.35-25.06,7-45.94-7-62.06C98.66,87.81,81.66,80.4,68,74.45A151.19,151.19,0,0,1,53.5,67.58C47.43,64,43.24,59.11,42,54.08c-1.14-4.69.12-10,3.74-15.71,2.79-4.43,11.22-8.61,20.48-7.94C78.35,31.3,88.68,40,95.32,54.87a10.5,10.5,0,0,0,19.18-8.55q-1.36-3.09-2.87-5.85a1,1,0,0,0-1.71-.06c-2.13,3.23-3.87,5.58-4.07,5.83a1.08,1.08,0,0,1-1.75,0c-.52-.68-12.56-16.94-12.56-24A13.4,13.4,0,0,1,92,18.76a1,1,0,0,0-.41-1.13A49.84,49.84,0,0,0,67.74,9.48C51.38,8.31,35.41,15.41,28,27.15c-8.44,13.38-8.13,24.73-6.38,31.9,2.61,10.69,10.17,20.16,21.3,26.66a162.84,162.84,0,0,0,16.7,8c31.62,13.78,51.33,25.53,37.76,61.94a25.09,25.09,0,0,1-1.5,3.28,1,1,0,0,1-1.72.09c-9.28-13.95-18.63-28.47-37.3-39.42-14.37-8.43-29.45-8.22-41.38.56A38.43,38.43,0,0,0,1,159.33c4.9,21,25.83,35.67,53.32,37.43a76.9,76.9,0,0,0,35.87-6.24,1,1,0,0,1,1.16.27,135.78,135.78,0,0,0,29.19,26.11,162,162,0,0,0,89.79,27.16,157,157,0,0,0,48.83-7.72c38.78-12.68,67.95-39,80-72.22A10.44,10.44,0,0,0,338.21,155ZM55.61,175.8c-14.78-1-31.09-7.88-34.21-21.24a17.66,17.66,0,0,1,6.52-17.5,13,13,0,0,1,7.9-2.6,20.86,20.86,0,0,1,10.41,3.24c14,8.21,21.27,19.15,29.69,31.83.5.73,1,1.48,1.49,2.23a1,1,0,0,1-.51,1.51A58.05,58.05,0,0,1,55.61,175.8Z"/><path d="M105,9.86a12.36,12.36,0,0,0-11.84,8.85,12.17,12.17,0,0,0-.5,3.49c0,5.75,8.79,18.45,11.53,22.28a1,1,0,0,0,1.62,0c1-1.33,2.65-3.74,4.43-6.55,3.37-5.27,7.11-12,7.11-15.73A12.35,12.35,0,0,0,105,9.86Zm1.12,9.38a3.27,3.27,0,0,1,2.07,2.08,3.36,3.36,0,1,1-2.07-2.08Z"/><path d="M327.58,69.64a30.7,30.7,0,0,0-30.7,30.71c0,11.89,15.09,38.73,24.11,53.72a0,0,0,0,1,0,0c2.57,4.27,4.65,7.58,5.74,9.3a1,1,0,0,0,1.69,0c1.26-2,3.84-6.1,7-11.37,9.1-15.27,22.88-40.29,22.88-51.65A30.7,30.7,0,0,0,327.58,69.64Zm1.94,42.57a11.47,11.47,0,1,1,9.36-9.36A11.47,11.47,0,0,1,329.52,112.21Z"/></g></g></svg>