<svg xmlns="http://www.w3.org/2000/svg" xmlns:xlink="http://www.w3.org/1999/xlink" viewBox="0 0 470.31 234.71"><defs><style>.cls-1{fill:url(#linear-gradient);}.cls-2{fill:#6686ff;}.cls-3{fill:#ff5dbb;}</style><linearGradient id="linear-gradient" y1="117.35" x2="470.31" y2="117.35" gradientUnits="userSpaceOnUse"><stop offset="0.01" stop-color="#4ae779"/><stop offset="1" stop-color="#4ae779"/></linearGradient></defs><title>color-logo-stroll-text</title><g id="Layer_2" data-name="Layer 2"><g id="Layer_1-2" data-name="Layer 1"><path class="cls-1" d="M136.83,84.56a6.81,6.81,0,0,1-4.41-2.35,7,7,0,0,1-1.67-4.71,7.36,7.36,0,0,1,.69-2.94,7.54,7.54,0,0,1,2.05-2.74q2.55-2.55,13.72-2.55a76.56,76.56,0,0,0,1.57-15.48c0-2-.07-3.66-.19-5.1s-.2-2.55-.2-3.33a7.27,7.27,0,0,1,3.23-6.47A13,13,0,0,1,159,36.73q5.1,0,7,2.55t1.86,9.41a112.16,112.16,0,0,1-1.76,20q3.14,0,8.62-.39,7.46-.39,10.78-.39a10.08,10.08,0,0,1,5.79,1.66,5.3,5.3,0,0,1,2.45,4.61q0,7.64-6.86,9-7.26,1.77-22.54,2.16-.6,7.65-.59,16.66a124.74,124.74,0,0,0,1.76,23.13c.79,4.18,2.12,7.22,4,9.11s4.73,2.85,8.53,2.85a15.28,15.28,0,0,0,6.86-1.77,8.7,8.7,0,0,1,4.31-1.37,4.65,4.65,0,0,1,4,1.76,8,8,0,0,1,1.27,4.71q0,5.49-5.88,9.11t-15.09,3.63A26.57,26.57,0,0,1,162,150.41a32.14,32.14,0,0,1-9.7-6.86,20.12,20.12,0,0,1-2.16-4.5,71.84,71.84,0,0,1-2.74-8.43q-2-9.21-2-25.87,0-7.26.78-19.41Zm74.08-8.43a7.16,7.16,0,0,1,2.35-5.1c1.57-1.56,3.92-2.35,7.06-2.35a17.92,17.92,0,0,1,9.9,2.84,15,15,0,0,1,6.17,8.14,36.13,36.13,0,0,1,10.29-8.43,24.6,24.6,0,0,1,11.86-3.14A23.18,23.18,0,0,1,271.67,72a12.15,12.15,0,0,1,5.88,10.59q0,3.72-3.23,7.64c-2.16,2.62-4.35,3.92-6.57,3.92a5.21,5.21,0,0,1-3-.88,22.86,22.86,0,0,1-3-2.65,21.91,21.91,0,0,0-3.34-2.84,5.64,5.64,0,0,0-3.13-.88,17.44,17.44,0,0,0-5.88,1,7.68,7.68,0,0,0-3.73,2.35,48.37,48.37,0,0,0-4.6,8.82,23.83,23.83,0,0,0-1.47,8.43c0,2.22-.07,4-.2,5.29L239.14,124c0,1.7.06,3.6.19,5.69s.26,3.66.39,4.7a90.53,90.53,0,0,1,.59,10.19,8,8,0,0,1-2.55,5.88,8.52,8.52,0,0,1-6.27,2.55q-5.88,0-8.62-2.25t-2.75-8.33l-.19-12.55q-.19-3.72-.2-10.58l.2-12.94q.39-9.41.39-15.28a8.59,8.59,0,0,0-.88-3.92A10.16,10.16,0,0,0,216,83.58Q210.91,80,210.91,76.13Zm183.64,57.33q2.25,4,5.78,4a22.28,22.28,0,0,0,3.73-.3,22.12,22.12,0,0,1,3.53-.29,4.24,4.24,0,0,1,3.43,2,7,7,0,0,1,1.47,4.31,8.18,8.18,0,0,1-4.41,7.35q-4.41,2.66-11.86,2.65a20.6,20.6,0,0,1-10.68-3.24,24.1,24.1,0,0,1-8.92-10.19q-3.53-7-3.53-17.34,0-22.35.78-37.83,1-18.42,1-46.45,0-8.82,1-12.35a8.59,8.59,0,0,1,3.83-4.22,11.3,11.3,0,0,1,5.58-1.47,13,13,0,0,1,5.2,1,5.32,5.32,0,0,1,3,3.14,23.6,23.6,0,0,1,1.08,4.61,51.36,51.36,0,0,1,.3,6.37q0,8-.59,15.48-.39,9-.39,13.13-1.58,34.5-1.57,58.21Q392.3,129.45,394.55,133.46Zm57.82,0q2.25,4,5.78,4a22.28,22.28,0,0,0,3.73-.3,22,22,0,0,1,3.53-.29,4.21,4.21,0,0,1,3.42,2,7,7,0,0,1,1.48,4.31,8.2,8.2,0,0,1-4.41,7.35q-4.41,2.66-11.86,2.65a20.6,20.6,0,0,1-10.68-3.24,24.1,24.1,0,0,1-8.92-10.19q-3.54-7-3.53-17.34,0-22.35.78-37.83,1-18.42,1-46.45,0-8.82,1-12.35a8.59,8.59,0,0,1,3.83-4.22,11.3,11.3,0,0,1,5.58-1.47,13,13,0,0,1,5.19,1,5.31,5.31,0,0,1,3,3.14,24.34,24.34,0,0,1,1.08,4.61,51.74,51.74,0,0,1,.29,6.37q0,8-.58,15.48c-.27,6-.39,10.39-.39,13.13q-1.57,34.5-1.57,58.21Q450.12,129.45,452.37,133.46ZM338.21,145.65a1,1,0,0,0-1.69,0c-3.72,6.19-6.47,10.44-6.84,11a2.5,2.5,0,0,1-4.2,0c-.29-.47-2.16-3.36-4.85-7.76a1,1,0,0,0-1.79.17c-10.21,26.4-34.26,47.46-66.26,57.92-40,13.08-85,6.75-120.41-16.94a114.54,114.54,0,0,1-23.68-20.88,1,1,0,0,1,0-1.31A45.56,45.56,0,0,0,117,153.63c9.35-25.06,7-45.94-7-62.06C98.66,78.46,81.66,71.05,68,65.1A151.19,151.19,0,0,1,53.5,58.23C47.43,54.68,43.24,49.76,42,44.73c-1.14-4.69.12-10,3.74-15.71,2.79-4.43,11.22-8.61,20.48-7.94,12.12.87,22.45,9.55,29.09,24.44A10.5,10.5,0,0,0,114.5,37q-1.36-3.09-2.87-5.85a1,1,0,0,0-1.71-.06c-2.13,3.23-3.87,5.58-4.07,5.83a1.08,1.08,0,0,1-1.75,0c-.52-.68-12.56-16.94-12.56-24A13.4,13.4,0,0,1,92,9.41a1,1,0,0,0-.41-1.13A49.73,49.73,0,0,0,67.74.13C51.38-1,35.41,6.06,28,17.8c-8.44,13.38-8.13,24.73-6.38,31.9,2.61,10.69,10.17,20.16,21.3,26.66a162.84,162.84,0,0,0,16.7,8c31.62,13.78,51.33,25.53,37.76,61.94a25.09,25.09,0,0,1-1.5,3.28,1,1,0,0,1-1.72.08c-9.28-13.94-18.63-28.47-37.3-39.41-14.37-8.43-29.45-8.22-41.38.56A38.43,38.43,0,0,0,1,150c4.9,21,25.83,35.67,53.32,37.43a77,77,0,0,0,35.87-6.24,1,1,0,0,1,1.16.26,135.53,135.53,0,0,0,29.19,26.12,162,162,0,0,0,89.79,27.16A157,157,0,0,0,259.11,227c38.78-12.68,67.95-39,80-72.22A10.43,10.43,0,0,0,338.21,145.65Zm-282.6,20.8c-14.78-.95-31.09-7.88-34.21-21.24a17.66,17.66,0,0,1,6.52-17.5,13,13,0,0,1,7.9-2.6,20.86,20.86,0,0,1,10.41,3.24c14,8.21,21.27,19.15,29.69,31.83.5.73,1,1.47,1.49,2.22a1,1,0,0,1-.51,1.52A58.05,58.05,0,0,1,55.61,166.45Z"/><path class="cls-2" d="M105,.51A12.36,12.36,0,0,0,93.13,9.36a12.17,12.17,0,0,0-.5,3.49c0,5.75,8.79,18.45,11.53,22.27a1,1,0,0,0,1.62,0c1-1.33,2.65-3.73,4.43-6.54,3.37-5.27,7.11-12,7.11-15.73A12.35,12.35,0,0,0,105,.51Zm1.12,9.38A3.24,3.24,0,0,1,108.16,12a3.37,3.37,0,0,1-3.84,4.41,3.33,3.33,0,0,1-2.64-2.64A3.37,3.37,0,0,1,106.09,9.89Z"/><path class="cls-3" d="M327.58,60.29A30.7,30.7,0,0,0,296.88,91c0,11.89,15.09,38.73,24.11,53.72h0c2,3.33,3.72,6.08,4.89,8a2,2,0,0,0,3.38,0c1.41-2.24,3.59-5.75,6.13-10,9.1-15.27,22.88-40.29,22.88-51.65A30.7,30.7,0,0,0,327.58,60.29Zm1.94,42.57a11.47,11.47,0,1,1,9.36-9.36A11.48,11.48,0,0,1,329.52,102.86Z"/></g></g></svg>